name rise34.3697peak60.0498fall86.3158.mot
datacolumns 19
datarows 33
range 2.38332100000000 2.43666000000000
endheader
time	ground_force1_vx	ground_force1_vy	ground_force1_vz	ground_force1_px	ground_force1_py	ground_force1_pz	ground_force2_vx	ground_force2_vy	ground_force2_vz	ground_force2_px	ground_force2_py	ground_force2_pz	ground_torque1_x	ground_torque1_y	ground_torque1_z	ground_torque2_x	ground_torque2_y	ground_torque2_z	
2.38332100000000	-4.92732500000000	711.38262099999997	40.85256300000000	0.28626100000000	0.00000000000000	0.11479800000000	0.00000000000000	0.00000000000000	0.00000000000000	0.00000000000000	0.00000000000000	0.00000000000000	0.00000000000000	23.20670300000000	0.00000000000000	0.00000000000000	0.00000000000000	0.00000000000000	
2.38499500000000	-5.47824000000000	711.82485099999997	40.93067800000000	0.28556100000000	0.00000000000000	0.11480100000000	0.00000000000000	0.00000000000000	0.00000000000000	0.00000000000000	0.00000000000000	0.00000000000000	0.00000000000000	23.31051100000000	0.00000000000000	0.00000000000000	0.00000000000000	0.00000000000000	
2.38666100000000	-6.04045900000000	712.25517400000001	41.01288300000000	0.28486200000000	0.00000000000000	0.11480400000000	0.00000000000000	0.00000000000000	0.00000000000000	0.00000000000000	0.00000000000000	0.00000000000000	0.00000000000000	23.41914400000000	0.00000000000000	0.00000000000000	0.00000000000000	0.00000000000000	
2.38833200000000	-6.61415600000000	712.67392700000005	41.09902900000000	0.28416400000000	0.00000000000000	0.11480700000000	0.00000000000000	0.00000000000000	0.00000000000000	0.00000000000000	0.00000000000000	0.00000000000000	0.00000000000000	23.53252000000000	0.00000000000000	0.00000000000000	0.00000000000000	0.00000000000000	
2.38998900000000	-7.19946500000000	713.08164199999999	41.18898300000000	0.28346600000000	0.00000000000000	0.11481200000000	0.00000000000000	0.00000000000000	0.00000000000000	0.00000000000000	0.00000000000000	0.00000000000000	0.00000000000000	23.65055500000000	0.00000000000000	0.00000000000000	0.00000000000000	0.00000000000000	
2.39165800000000	-7.79648400000000	713.47903799999995	41.28261700000000	0.28276500000000	0.00000000000000	0.11481700000000	0.00000000000000	0.00000000000000	0.00000000000000	0.00000000000000	0.00000000000000	0.00000000000000	0.00000000000000	23.77317000000000	0.00000000000000	0.00000000000000	0.00000000000000	0.00000000000000	
2.39332900000000	-8.40527100000000	713.86702000000002	41.37981900000000	0.28206200000000	0.00000000000000	0.11482200000000	0.00000000000000	0.00000000000000	0.00000000000000	0.00000000000000	0.00000000000000	0.00000000000000	0.00000000000000	23.90028400000000	0.00000000000000	0.00000000000000	0.00000000000000	0.00000000000000	
2.39499100000000	-9.02584500000000	714.24667299999999	41.48048600000000	0.28135500000000	0.00000000000000	0.11482900000000	0.00000000000000	0.00000000000000	0.00000000000000	0.00000000000000	0.00000000000000	0.00000000000000	0.00000000000000	24.03181700000000	0.00000000000000	0.00000000000000	0.00000000000000	0.00000000000000	
2.39665600000000	-9.65818500000000	714.61925599999995	41.58452400000000	0.28064300000000	0.00000000000000	0.11483600000000	0.00000000000000	0.00000000000000	0.00000000000000	0.00000000000000	0.00000000000000	0.00000000000000	0.00000000000000	24.16769200000000	0.00000000000000	0.00000000000000	0.00000000000000	0.00000000000000	
2.39833200000000	-10.30223200000000	714.98619499999995	41.69185100000000	0.27992600000000	0.00000000000000	0.11484300000000	0.00000000000000	0.00000000000000	0.00000000000000	0.00000000000000	0.00000000000000	0.00000000000000	0.00000000000000	24.30782800000000	0.00000000000000	0.00000000000000	0.00000000000000	0.00000000000000	
2.39999000000000	-10.95788800000000	715.34907799999996	41.80239600000000	0.27920200000000	0.00000000000000	0.11485100000000	0.00000000000000	0.00000000000000	0.00000000000000	0.00000000000000	0.00000000000000	0.00000000000000	0.00000000000000	24.45214500000000	0.00000000000000	0.00000000000000	0.00000000000000	0.00000000000000	
2.40165500000000	-11.62501400000000	715.70964200000003	41.91609700000000	0.27847100000000	0.00000000000000	0.11486000000000	0.00000000000000	0.00000000000000	0.00000000000000	0.00000000000000	0.00000000000000	0.00000000000000	0.00000000000000	24.60056400000000	0.00000000000000	0.00000000000000	0.00000000000000	0.00000000000000	
2.40332400000000	-12.30343400000000	716.06977099999995	42.03290200000000	0.27773100000000	0.00000000000000	0.11486900000000	0.00000000000000	0.00000000000000	0.00000000000000	0.00000000000000	0.00000000000000	0.00000000000000	0.00000000000000	24.75300300000000	0.00000000000000	0.00000000000000	0.00000000000000	0.00000000000000	
2.40499100000000	-12.99293300000000	716.43148099999996	42.15276800000000	0.27698300000000	0.00000000000000	0.11487900000000	0.00000000000000	0.00000000000000	0.00000000000000	0.00000000000000	0.00000000000000	0.00000000000000	0.00000000000000	24.90937900000000	0.00000000000000	0.00000000000000	0.00000000000000	0.00000000000000	
2.40665500000000	-13.69325900000000	716.79691200000002	42.27566300000000	0.27622500000000	0.00000000000000	0.11488900000000	0.00000000000000	0.00000000000000	0.00000000000000	0.00000000000000	0.00000000000000	0.00000000000000	0.00000000000000	25.06961100000000	0.00000000000000	0.00000000000000	0.00000000000000	0.00000000000000	
2.40832200000000	-14.40412000000000	717.16831700000000	42.40156300000000	0.27545700000000	0.00000000000000	0.11490000000000	0.00000000000000	0.00000000000000	0.00000000000000	0.00000000000000	0.00000000000000	0.00000000000000	0.00000000000000	25.23361100000000	0.00000000000000	0.00000000000000	0.00000000000000	0.00000000000000	
2.40998900000000	-15.12519000000000	717.54805099999999	42.53045300000000	0.27467700000000	0.00000000000000	0.11491100000000	0.00000000000000	0.00000000000000	0.00000000000000	0.00000000000000	0.00000000000000	0.00000000000000	0.00000000000000	25.40129300000000	0.00000000000000	0.00000000000000	0.00000000000000	0.00000000000000	
2.41165300000000	-15.85610700000000	717.93855900000005	42.66232700000000	0.27388700000000	0.00000000000000	0.11492300000000	0.00000000000000	0.00000000000000	0.00000000000000	0.00000000000000	0.00000000000000	0.00000000000000	0.00000000000000	25.57256700000000	0.00000000000000	0.00000000000000	0.00000000000000	0.00000000000000	
2.41332000000000	-16.59647300000000	718.34236599999997	42.79718800000000	0.27308400000000	0.00000000000000	0.11493500000000	0.00000000000000	0.00000000000000	0.00000000000000	0.00000000000000	0.00000000000000	0.00000000000000	0.00000000000000	25.74734200000000	0.00000000000000	0.00000000000000	0.00000000000000	0.00000000000000	
2.41498600000000	-17.34585600000000	718.76205700000003	42.93504700000000	0.27226900000000	0.00000000000000	0.11494800000000	0.00000000000000	0.00000000000000	0.00000000000000	0.00000000000000	0.00000000000000	0.00000000000000	0.00000000000000	25.92552300000000	0.00000000000000	0.00000000000000	0.00000000000000	0.00000000000000	
2.41665900000000	-18.10379100000000	719.20027500000003	43.07592400000000	0.27144200000000	0.00000000000000	0.11496100000000	0.00000000000000	0.00000000000000	0.00000000000000	0.00000000000000	0.00000000000000	0.00000000000000	0.00000000000000	26.10701400000000	0.00000000000000	0.00000000000000	0.00000000000000	0.00000000000000	
2.41832800000000	-18.86978100000000	719.65969800000005	43.21984500000000	0.27060100000000	0.00000000000000	0.11497400000000	0.00000000000000	0.00000000000000	0.00000000000000	0.00000000000000	0.00000000000000	0.00000000000000	0.00000000000000	26.29171500000000	0.00000000000000	0.00000000000000	0.00000000000000	0.00000000000000	
2.41999500000000	-19.64330000000000	720.14302799999996	43.36684800000000	0.26974800000000	0.00000000000000	0.11498700000000	0.00000000000000	0.00000000000000	0.00000000000000	0.00000000000000	0.00000000000000	0.00000000000000	0.00000000000000	26.47952400000000	0.00000000000000	0.00000000000000	0.00000000000000	0.00000000000000	
2.42166000000000	-20.42378900000000	720.65298099999995	43.51697400000000	0.26888100000000	0.00000000000000	0.11500100000000	0.00000000000000	0.00000000000000	0.00000000000000	0.00000000000000	0.00000000000000	0.00000000000000	0.00000000000000	26.67033400000000	0.00000000000000	0.00000000000000	0.00000000000000	0.00000000000000	
2.42332300000000	-21.21066400000000	721.19226800000001	43.67027500000000	0.26800000000000	0.00000000000000	0.11501500000000	0.00000000000000	0.00000000000000	0.00000000000000	0.00000000000000	0.00000000000000	0.00000000000000	0.00000000000000	26.86403700000000	0.00000000000000	0.00000000000000	0.00000000000000	0.00000000000000	
2.42500200000000	-22.00331200000000	721.76358200000004	43.82680900000000	0.26710700000000	0.00000000000000	0.11502800000000	0.00000000000000	0.00000000000000	0.00000000000000	0.00000000000000	0.00000000000000	0.00000000000000	0.00000000000000	27.06052100000000	0.00000000000000	0.00000000000000	0.00000000000000	0.00000000000000	
2.42665600000000	-22.80109700000000	722.36958400000003	43.98664000000000	0.26619900000000	0.00000000000000	0.11504200000000	0.00000000000000	0.00000000000000	0.00000000000000	0.00000000000000	0.00000000000000	0.00000000000000	0.00000000000000	27.25967100000000	0.00000000000000	0.00000000000000	0.00000000000000	0.00000000000000	
2.42832100000000	-23.60335600000000	723.01289099999997	44.14984100000000	0.26527900000000	0.00000000000000	0.11505600000000	0.00000000000000	0.00000000000000	0.00000000000000	0.00000000000000	0.00000000000000	0.00000000000000	0.00000000000000	27.46136700000000	0.00000000000000	0.00000000000000	0.00000000000000	0.00000000000000	
2.42999500000000	-24.40940700000000	723.69605600000000	44.31649000000000	0.26434600000000	0.00000000000000	0.11506900000000	0.00000000000000	0.00000000000000	0.00000000000000	0.00000000000000	0.00000000000000	0.00000000000000	0.00000000000000	27.66548900000000	0.00000000000000	0.00000000000000	0.00000000000000	0.00000000000000	
2.43165700000000	-25.21854300000000	724.42156000000000	44.48667100000000	0.26340000000000	0.00000000000000	0.11508200000000	0.00000000000000	0.00000000000000	0.00000000000000	0.00000000000000	0.00000000000000	0.00000000000000	0.00000000000000	27.87191100000000	0.00000000000000	0.00000000000000	0.00000000000000	0.00000000000000	
2.43332900000000	-26.03004200000000	725.19179299999996	44.66047500000000	0.26244100000000	0.00000000000000	0.11509500000000	0.00000000000000	0.00000000000000	0.00000000000000	0.00000000000000	0.00000000000000	0.00000000000000	0.00000000000000	28.08050400000000	0.00000000000000	0.00000000000000	0.00000000000000	0.00000000000000	
2.43499100000000	-26.84316100000000	726.00904500000001	44.83799700000000	0.26147100000000	0.00000000000000	0.11510700000000	0.00000000000000	0.00000000000000	0.00000000000000	0.00000000000000	0.00000000000000	0.00000000000000	0.00000000000000	28.29113800000000	0.00000000000000	0.00000000000000	0.00000000000000	0.00000000000000	
2.43666000000000	-27.65714300000000	726.87548700000002	45.01933700000000	0.26048900000000	0.00000000000000	0.11511900000000	0.00000000000000	0.00000000000000	0.00000000000000	0.00000000000000	0.00000000000000	0.00000000000000	0.00000000000000	28.50367700000000	0.00000000000000	0.00000000000000	0.00000000000000	0.00000000000000	
